<?xml version="1.0" encoding="UTF-8"?>
<svg id="Capa_1" data-name="Capa 1" xmlns="http://www.w3.org/2000/svg" viewBox="0 0 32 32">
  <path d="M0,14.94c.68-.84,1.59-1.33,2.53-1.77,.82-.38,1.66-.67,2.56-.86-.03-.15-.15-.22-.23-.3-1.3-1.41-2.05-3.07-2.27-4.99-.04-.39-.06-.78-.06-1.17,0-.55,.35-.83,.88-.73,1.32,.26,2.63,.52,3.95,.78,.45,.09,.9,.16,1.35,.27,.26,.06,.34-.02,.38-.27,.2-1.21,.35-2.42,.41-3.65,.03-.5,.04-1,.06-1.5,.01-.35,.18-.57,.5-.67,.51-.16,1.01-.09,1.5,.1,1.02,.41,1.87,1.07,2.71,1.76,.52,.43,1.02,.89,1.48,1.39,.17,.19,.28,.18,.46,0,1.05-1.09,2.18-2.07,3.49-2.82,.55-.32,1.13-.55,1.79-.51,.67,.04,.91,.4,.92,.92,.03,1.59,.14,3.18,.42,4.75,.07,.38,.06,.38,.41,.21,1.77-.84,3.61-1.15,5.54-.8,.61,.11,.85,.64,.48,1.16-1.23,1.7-2.01,3.62-2.68,5.59-.09,.27-.03,.36,.23,.4,1,.17,2,.31,3.01,.35,.47,.02,.94,.04,1.4,.06,.63,.02,.93,.46,.68,1.06-.67,1.58-1.72,2.83-3.16,3.74-.14,.09-.29,.18-.44,.26-.41,.23-.42,.23-.13,.58,.61,.73,1.29,1.39,2.09,1.9,.66,.42,.49,1.1,.06,1.46-.48,.41-1.06,.65-1.63,.87-.69,.26-1.39,.5-2.1,.67-.23,.05-.31,.16-.3,.4,.05,1.15,.17,2.29,.49,3.4,.06,.21,.13,.42,.07,.64-.08,.3-.32,.48-.67,.49-.99,.03-1.95-.15-2.88-.48-.25-.09-.35-.03-.47,.18-1.17,1.94-2.76,3.34-4.95,3.96-.33,.09-.66,.15-1,.22h-1.79c-.24-.05-.48-.09-.72-.15-2.3-.57-3.99-1.98-5.21-4.01-.16-.26-.29-.33-.58-.24-1.07,.32-2.16,.47-3.27,.52-.74,.03-1.04-.56-.72-1.18,.48-.92,.81-1.91,.98-2.94,.12-.73,.13-.72-.55-.91-1.08-.3-2.16-.6-3.23-.91-.27-.07-.46-.24-.52-.52-.06-.29,.03-.54,.26-.72,.08-.07,.17-.13,.26-.19,.94-.69,1.85-1.43,2.73-2.2,.17-.15,.15-.23-.01-.37-.36-.3-.78-.49-1.2-.68-1.01-.44-1.98-.96-2.88-1.6-.17-.12-.32-.25-.42-.43v-.52Zm8.97,4.39c.04,1.18-.04,2.41,.05,3.63,.18,2.34,1.02,4.37,2.74,5.98,1.21,1.13,2.65,1.75,4.3,1.72,2.03-.04,3.66-.97,4.94-2.55,1.38-1.69,1.97-3.68,1.99-5.84,.02-2.2,.09-4.4-.05-6.6-.14-2.36-1.02-4.39-2.74-6.01-1.97-1.85-4.74-2.26-7.08-.95-2.6,1.46-3.78,3.86-4.09,6.78-.13,1.26-.04,2.54-.07,3.84Zm-5.5,1.9c1,.28,1.92,.54,2.85,.8,.67,.19,.82,.44,.71,1.14-.18,1.09-.45,2.16-.82,3.2-.07,.18-.09,.27,.17,.24,.57-.07,1.13-.19,1.7-.29,.27-.05,.28-.16,.2-.4-.42-1.2-.62-2.43-.61-3.7,.01-1.37,0-2.73,0-4.1,0-1-.06-1.99,.06-2.99,.3-2.6,1.33-4.82,3.27-6.58,2.57-2.34,6.3-2.63,9.14-.66,2.74,1.9,4.01,4.66,4.18,7.95,.09,1.77,0,3.56,.03,5.34,.03,1.66-.06,3.3-.65,4.87-.07,.18-.01,.26,.16,.31,.4,.11,.81,.18,1.22,.26,.28,.05,.33,0,.27-.29-.23-1.08-.36-2.18-.4-3.29-.03-.67,.11-.83,.75-1,1.02-.27,2.04-.56,3.01-.98,.36-.15,.36-.16,.05-.42-.82-.69-1.58-1.46-2.26-2.3-.45-.56-.37-.96,.27-1.3,1.26-.66,2.34-1.54,3.18-2.71,.07-.1,.22-.21,.17-.33-.05-.14-.23-.06-.35-.07-1.36-.11-2.71-.25-4.06-.5-.72-.14-.91-.46-.67-1.18,.63-1.92,1.38-3.78,2.4-5.52,.15-.25,.06-.29-.17-.28-.36,0-.72,.05-1.08,.1-1.2,.17-2.34,.57-3.44,1.09-.5,.23-.9,.03-1.01-.51-.08-.36-.13-.72-.18-1.09-.19-1.41-.37-2.81-.39-4.24,0-.24-.1-.3-.32-.25-.3,.07-.55,.23-.8,.39-1.26,.8-2.33,1.82-3.37,2.88-.53,.54-.81,.53-1.34,0-1.06-1.08-2.16-2.13-3.45-2.93-.23-.14-.46-.27-.72-.33-.23-.06-.31,.03-.31,.26-.01,.47-.03,.93-.07,1.4-.11,1.31-.25,2.61-.5,3.9-.09,.49-.4,.69-.88,.6-1.66-.32-3.32-.65-4.99-.98-.34-.07-.39-.03-.33,.31,.35,1.99,1.24,3.68,2.68,5.07,.24,.23,.38,.47,.29,.8-.09,.34-.36,.45-.67,.52-1.45,.29-2.85,.73-4.12,1.54-.32,.21-.32,.2,0,.4,.89,.55,1.84,1,2.78,1.46,.51,.25,.94,.59,1.25,1.09,.24,.4,.21,.72-.12,1.05-.27,.26-.55,.51-.83,.77-.57,.52-1.17,1-1.85,1.52Z"/>
  <path d="M15.99,17.98c-.64,1.66-1.57,2.35-3.03,2.32-1.12-.02-2.21-.85-2.6-1.99-.45-1.32-.03-2.42,1.37-3.59-.35-.1-.7-.18-1.04-.3-.39-.13-.57-.48-.47-.84,.1-.37,.43-.59,.82-.47,1.38,.42,2.8,.55,4.23,.6,1.71,.06,3.4-.05,5.08-.43,.19-.04,.37-.11,.55-.16,.4-.1,.74,.07,.85,.43,.12,.39-.07,.75-.49,.88-.32,.11-.66,.18-1.01,.28,1.31,.9,1.86,2.1,1.34,3.66-.37,1.11-1.44,1.89-2.51,1.92-1.6,.04-2.56-.8-3.08-2.32Zm-1.31-.62c0-.86-.72-1.6-1.57-1.6-.85,0-1.57,.73-1.57,1.6,0,.86,.72,1.6,1.57,1.6,.85,0,1.57-.73,1.57-1.6Zm4.18-1.6c-.85,0-1.57,.74-1.56,1.6,0,.87,.73,1.6,1.58,1.59,.85,0,1.57-.75,1.56-1.61,0-.87-.73-1.6-1.58-1.59Zm-3.88-.64c.53,.46,.8,.99,1.01,1.66,.2-.68,.48-1.21,1-1.66h-2.01Z"/>
  <path d="M15.86,24.82c1.67-.02,3.18,.2,4.67,.63,.31,.09,.55,.25,.59,.6,.06,.52-.36,.87-.89,.73-.6-.16-1.2-.3-1.81-.4-.45-.08-.44-.08-.57,.37-.15,.53-.44,.96-.96,1.19-.12,.05-.17,.14-.21,.26-.27,.79-.91,1.24-1.73,1.22-.74-.02-1.37-.53-1.59-1.32-.04-.13-.11-.2-.22-.25-.42-.22-.77-.51-.91-1-.04-.15-.13-.17-.27-.13-.13,.04-.27,.07-.41,.08-.34,.02-.62-.19-.69-.5-.08-.34,.07-.67,.4-.79,.32-.12,.65-.21,.98-.28,1.23-.27,2.47-.45,3.61-.42Zm.14,1.35c-.71,.07-1.45,.04-2.17,.18-.1,.02-.27-.05-.28,.13,0,.18,.14,.25,.29,.28,.57,.12,.66,.22,.75,.79,.01,.07,.03,.15,.05,.22,.05,.19,.18,.29,.37,.29,.19,0,.32-.1,.38-.29,.03-.1,.05-.21,.06-.32,.06-.42,.22-.6,.64-.7,.09-.02,.18-.05,.27-.09,.14-.07,.2-.2,.19-.35-.01-.17-.18-.12-.28-.15-.08-.02-.17-.01-.27-.02Z"/>
  <path d="M17.29,21.98c0,.33,0,.65,0,.98-.03,.99-.84,1.52-1.74,1.15-.47-.19-.88-.48-1.25-.83-.3-.28-.33-.7-.09-.99,.24-.28,.61-.31,.95-.07,.21,.15,.41,.31,.62,.46,.14,.11,.21,.06,.2-.12,0-.52,0-1.04,0-1.56,0-.47,.25-.74,.66-.74,.41,0,.65,.28,.66,.74,0,.33,0,.65,0,.98h0Z"/>
  <path d="M12.8,18.35c-.38,0-.67-.28-.67-.67,0-.39,.28-.68,.67-.67,.37,0,.64,.28,.65,.65,0,.39-.27,.68-.65,.69Z"/>
  <path d="M19.85,17.02c0,.39-.28,.68-.66,.68-.38,0-.66-.29-.66-.68,0-.37,.28-.65,.65-.66,.38,0,.67,.28,.67,.67Z"/>
</svg>