<?xml version="1.0" encoding="utf-8"?>
<!-- Generator: Adobe Illustrator 26.3.0, SVG Export Plug-In . SVG Version: 6.00 Build 0)  -->
<svg version="1.1" id="Capa_1" xmlns="http://www.w3.org/2000/svg" xmlns:xlink="http://www.w3.org/1999/xlink" x="0px" y="0px"
	 viewBox="0 0 200 320" style="enable-background:new 0 0 200 320;" xml:space="preserve">
<style type="text/css">
	.st0{fill:#FCA311;}
</style>
<path class="st0" d="M10.7,48v206.9c0,6.8,5.5,12.3,12.3,12.3c3.5,0,7-1.5,9.3-4.2l46.1-52.8l32.4,64.9c4.4,8.8,15.1,12.4,23.9,7.9
	c8.8-4.4,12.4-15.1,7.9-23.9l-31.6-63.5h65.9c6.8,0,12.3-5.5,12.3-12.3c0-3.5-1.5-6.9-4.1-9.2L32.2,38.3c-2.4-2.1-5.4-3.3-8.6-3.3
	C16.5,35,10.7,40.8,10.7,48z"/>
</svg>
