<?xml version="1.0" encoding="utf-8"?>
<!-- Generator: Adobe Illustrator 26.3.0, SVG Export Plug-In . SVG Version: 6.00 Build 0)  -->
<svg version="1.1" id="Capa_1" xmlns="http://www.w3.org/2000/svg" xmlns:xlink="http://www.w3.org/1999/xlink" x="0px" y="0px"
	 viewBox="0 0 218.8 250" style="enable-background:new 0 0 218.8 250;" xml:space="preserve">
<style type="text/css">
	.st0{fill:#FCA311;}
</style>
<path class="st0" d="M179.3,107.6c-6.3-7.9-15.9-12.5-26-12.5h-6.3c-1.8,0-3.4,0.1-5,0.4c-5.7-4.3-12.8-6.7-20-6.7h-5.3V33.6
	c0-17.9-14.1-33.2-32-33.6C66-0.5,50.7,14.4,50.7,32.9v92.7c-5-2.5-9.5-2.3-12-2.3c-20.3,0-32,17-32,32c0,6.9,2.2,13.5,6.4,19.1
	L49,222.1c13.1,17.5,33.9,27.9,55.7,27.9h50.3c2.9,0,5.9-0.5,8.3-1.2c13.1-2.5,24.7-8.9,33.5-18.5c9.7-10.3,15.2-24.1,15.2-38.8
	v-50.3C211.9,122.8,197.3,108.1,179.3,107.6z M94.7,198.5v-44c0-4,3.3-7.3,7.3-7.3c4,0,7.3,3.3,7.3,7.3v44c0,4.1-3.3,7.3-7.3,7.3
	C97.9,205.8,94.7,202.7,94.7,198.5z M124,154.7c0-4,3.3-7.3,7.3-7.3s6.9,3.3,7.3,7.3v44c0,4-4.1,7.3-7.7,7.3c-3.6,0-6.9-3.3-6.9-7.3
	v-44H124z M153.3,154.7c0-4,3.3-7.3,7.3-7.3c4,0,7.3,3.3,7.3,7.3v44c0,4.1-3.3,7.3-7.3,7.3c-4,0-7.3-3.3-7.3-7.3V154.7z"/>
</svg>
